<svg xmlns="http://www.w3.org/2000/svg" height="68" width="50"><rect id="backgroundrect" width="100%" height="100%" x="0" y="0" fill="none" stroke="none" class="" style=""/><g class="currentLayer" style=""><title>Layer 1</title><g class="selected" fill-opacity="1" fill="#ffffff"><path d="m12.91826771075916,11.55682317010215 c3.186338268838257,0 5.778411585051074,-2.592591254213938 5.778411585051074,-5.778411585051074 c0,-3.186338268838257 -2.5920733162128187,-5.778411585051074 -5.778411585051074,-5.778411585051074 c-3.185820330837137,0 -5.778411717685647,2.5920733162128187 -5.778411717685647,5.778411585051074 c0,3.185820330837137 2.5925913868485093,5.778411585051074 5.778411717685647,5.778411585051074 zm0,-8.891179181411157 c1.7164778374706766,0 3.112767596360081,1.396289758889405 3.112767596360081,3.112767596360081 c0,1.715959766834985 -1.396289758889405,3.1122495257243905 -3.112767596360081,3.1122495257243905 c-1.715959766834985,0 -3.1122495257243905,-1.396289758889405 -3.1122495257243905,-3.1122495257243905 c0,-1.7164778374706766 1.396289758889405,-3.112767596360081 3.1122495257243905,-3.112767596360081 zm0,0 " id="svg_1" class="" fill="#ffffff"/><path d="m28.727168754121017,0 c-3.1863384014728275,0 -5.778411585051074,2.5920733162128187 -5.778411585051074,5.778411585051074 c0,3.185820330837137 2.592073183578247,5.778411585051074 5.778411585051074,5.778411585051074 c3.186338268838257,0 5.778411585051074,-2.592591254213938 5.778411585051074,-5.778411585051074 c0,-3.186338268838257 -2.5925913868485093,-5.778411585051074 -5.778411585051074,-5.778411585051074 zm0,8.890661110775465 c-1.7164778374706766,0 -3.112767596360081,-1.396289758889405 -3.112767596360081,-3.1122495257243905 c0,-1.7164778374706766 1.396289758889405,-3.112767596360081 3.112767596360081,-3.112767596360081 c1.715959766834985,0 3.1122495257243905,1.396289758889405 3.1122495257243905,3.112767596360081 c0,1.715959766834985 -1.396289758889405,3.1122495257243905 -3.1122495257243905,3.1122495257243905 zm0,0 " id="svg_2" class="" fill="#ffffff"/><path d="m44.535551726847174,11.55682317010215 c3.186338268838257,0 5.778411585051074,-2.592591254213938 5.778411585051074,-5.778411585051074 c0,-3.186338268838257 -2.5920733162128187,-5.778411585051074 -5.778411585051074,-5.778411585051074 c-3.1863384014728275,0 -5.778411585051074,2.5920733162128187 -5.778411585051074,5.778411585051074 c0,3.185820330837137 2.592073183578247,5.778411585051074 5.778411585051074,5.778411585051074 zm0,-8.891179181411157 c1.715959766834985,0 3.112767596360081,1.396289758889405 3.112767596360081,3.112767596360081 c0,1.715959766834985 -1.3968078295250963,3.1122495257243905 -3.112767596360081,3.1122495257243905 c-1.7164778374706766,0 -3.112767596360081,-1.396289758889405 -3.112767596360081,-3.1122495257243905 c0,-1.7164778374706766 1.396289758889405,-3.112767596360081 3.112767596360081,-3.112767596360081 zm0,0 " id="svg_3" class="" fill="#ffffff"/><path d="m28.727168754121017,13.744775526734266 c-3.1863384014728275,0 -5.778411585051074,2.5920733162128187 -5.778411585051074,5.778411585051074 c0,3.1863384014728275 2.592073183578247,5.778411717685647 5.778411585051074,5.778411717685647 c3.186338268838257,0 5.778411585051074,-2.5920733162128187 5.778411585051074,-5.778411717685647 c0,-3.186338268838257 -2.5925913868485093,-5.778411585051074 -5.778411585051074,-5.778411585051074 zm0,8.891179181411157 c-1.7164778374706766,0 -3.112767596360081,-1.3962896262548339 -3.112767596360081,-3.112767596360081 c0,-1.715959766834985 1.396289758889405,-3.1122493930898187 3.112767596360081,-3.1122493930898187 c1.715959766834985,0 3.1122495257243905,1.3962896262548339 3.1122495257243905,3.1122493930898187 c0,1.7164779701052475 -1.396289758889405,3.112767596360081 -3.1122495257243905,3.112767596360081 zm0,0 " id="svg_4" class="" fill="#ffffff"/><path d="m44.535551726847174,13.744775526734266 c-3.1863384014728275,0 -5.778411585051074,2.5920733162128187 -5.778411585051074,5.778411585051074 c0,3.1863384014728275 2.592073183578247,5.778411717685647 5.778411585051074,5.778411717685647 c3.186338268838257,0 5.778411585051074,-2.5920733162128187 5.778411585051074,-5.778411717685647 c0,-3.186338268838257 -2.5920733162128187,-5.778411585051074 -5.778411585051074,-5.778411585051074 zm0,8.891179181411157 c-1.7164778374706766,0 -3.112767596360081,-1.3962896262548339 -3.112767596360081,-3.112767596360081 c0,-1.715959766834985 1.396289758889405,-3.1122493930898187 3.112767596360081,-3.1122493930898187 c1.715959766834985,0 3.112767596360081,1.3962896262548339 3.112767596360081,3.1122493930898187 c0,1.7164779701052475 -1.3968078295250963,3.112767596360081 -3.112767596360081,3.112767596360081 zm0,0 " id="svg_5" class="" fill="#ffffff"/><path d="m44.535551726847174,27.48955105346853 c-3.1863384014728275,0 -5.778411585051074,2.592591519483082 -5.778411585051074,5.778411717685647 c0,3.186338268838257 2.592073183578247,5.778411585051074 5.778411585051074,5.778411585051074 c3.186338268838257,0 5.778411585051074,-2.5920733162128187 5.778411585051074,-5.778411585051074 c0,-3.1858201982025656 -2.5920733162128187,-5.778411717685647 -5.778411585051074,-5.778411717685647 zm0,8.891179314045731 c-1.7164778374706766,0 -3.112767596360081,-1.396289758889405 -3.112767596360081,-3.112767596360081 c0,-1.7164779701052475 1.396289758889405,-3.1122495257243905 3.112767596360081,-3.1122495257243905 c1.715959766834985,0 3.112767596360081,1.3957715556191423 3.112767596360081,3.1122495257243905 c0,1.7164778374706766 -1.3968078295250963,3.112767596360081 -3.112767596360081,3.112767596360081 zm0,0 " id="svg_6" class="" fill="#ffffff"/><path d="m31.62181455359045,54.14599133828219 l0.506705577176167,-0.6989219853982397 c0.8217126841313817,-1.1330930313676135 1.3304905438503145,-2.1480583976270218 1.3304905438503145,-3.702369780629726 c0,-0.7362254585903045 -0.5968555710730383,-1.3330810296633429 -1.3325629590276513,-1.3330810296633429 c-0.7362254585903045,0 -1.3330810296633429,0.5968555710730383 -1.3330810296633429,1.3330810296633429 c0,0.7776737621370432 -0.1844449507829877,1.2569198713721388 -0.8227488254027646,2.137696321740337 l-0.5072236478118586,0.6989219853982397 c-0.5953012265313928,0.8217125514968103 -0.9103083334866073,1.7921210577607602 -0.9103083334866073,2.8070862913855974 v3.5738800396348362 h-16.64719304891193 v-2.8459441091193076 c0,-1.5470579961993103 -0.6025547459693575,-3.0013752474195776 -1.69627188896757,-4.09509239041779 l-2.435087700736331,-2.4350878333709023 c-0.9227429571852003,-0.9227428245506291 -1.4310027462684416,-2.149612609534097 -1.4310027462684416,-3.4541980299849855 v-1.3610587008746768 c0,-2.4837895237210352 -0.47872790596483283,-4.907997210569562 -1.4237492268304766,-7.20475129769458 l-2.1926152576224807,-5.332324251287942 c-0.1010302730538186,-0.2450630615614502 -0.07667936156146675,-0.5248392431365083 0.0652811444033993,-0.7481418790186348 c0.19532509730536368,-0.3087898614232039 0.5756132160294064,-0.45075036738806984 0.9253333103636572,-0.34609333461526887 c1.1424188333483445,0.3429846455319779 2.0817409793176687,1.1097782611466447 2.6464741814592703,2.1599746854207806 l0.4849451514968436,0.9025368760475224 c0.7041030896588676,1.3108025333483275 1.200446458313779,2.7174543681244177 1.4745233323579456,4.1800612800540335 l0.24402692029006726,1.3004405900962146 c0.12641732581755333,0.6766434890832248 0.7481418790186348,1.1460455930673268 1.4330751614457786,1.0818007225698818 c0.6854512204282639,-0.06372679986175374 1.2097723929290802,-0.6388219452554685 1.2097723929290802,-1.327381854767023 v-21.70906718587469 c0,-0.3616363821280102 0.13470685389232975,-0.7072116461075872 0.3797700480883513,-0.9735170627126692 l0.017615462690078316,-0.019687877867415254 c0.2600881710730716,-0.28288473802377784 0.6155073076690709,-0.4481597489404702 0.9999403893823584,-0.463702929087783 c0.385987293620362,-0.01606111814843277 0.751768506103046,0.11864573574389692 1.035171314762515,0.37925197745265987 c0.29480115845210797,0.27148638823113885 0.463702929087783,0.6574738144860724 0.463702929087783,1.058486084983484 v17.170477814872225 c0,0.7362255912248762 0.5968555710730383,1.3330811622979144 1.3330810296633429,1.3330811622979144 c0.7362255912248762,0 1.3330811622979144,-0.5968555710730383 1.3330811622979144,-1.3330811622979144 v-8.094853682678082 c0,-0.3445389900736234 0.15284051985267083,-0.6673176871024942 0.42018207772913585,-0.8854393513585641 c0.6144711663976881,-0.501524472915539 1.4942113428599324,-0.45023216411780714 2.047028124573204,0.11864573574389692 c0.2766674924917668,0.2844390825654232 0.4289899417087463,0.6600643002991007 0.4289899417087463,1.0569317404418386 v8.577208348361896 c0,0.7362254585903045 0.5968555710730383,1.3330810296633429 1.3330810296633429,1.3330810296633429 c0.7357073879546131,0 1.3325629590276513,-0.5968555710730383 1.3325629590276513,-1.3330810296633429 v-5.255126819090783 c0,-0.5118865488022234 0.12227249546287941,-0.9745532039840523 0.3631907266696558,-1.3766017483874187 c0.1854812246889417,-0.30982600269458677 0.4797641798707869,-0.5274297289495364 0.828448000299084,-0.6123986185857798 c0.3315864283739103,-0.080824324550712 0.6709444468214769,-0.028495741847025757 0.9538290522106833,0.1455871330492772 l0.09688544269914473,0.06061811077846265 c0.36111844412689004,0.22589325432972635 0.5766496225699318,0.6144711663976881 0.5766496225699318,1.040352419023143 v7.388160107206185 c0,0.7362254585903045 0.5968555710730383,1.3330810296633429 1.3330810296633429,1.3330810296633429 s1.3330810296633429,-0.5968555710730383 1.3330810296633429,-1.3330810296633429 v-2.364107646705755 c0,-0.48598129276822644 0.14662340695523132,-0.9538290522106833 0.42380883744811826,-1.3532871108010207 c0.3264054567478536,-0.4699200419852223 0.8724869222934225,-0.7118745470979525 1.3916268578990398,-0.6155073076690709 c0.2533527222707978,0.04662940780736682 0.4901261231229004,0.1626846577382354 0.6838970085211898,0.335731258728584 c0.30153647461981037,0.26889590241811057 0.4740650049744676,0.6543651254027811 0.4740650049744676,1.0579680143477925 v5.135962880076624 c0,0.7362254585903045 0.5968555710730383,1.3330810296633429 1.3330810296633429,1.3330810296633429 c0.7357073879546131,0 1.3325629590276513,-0.5968555710730383 1.3325629590276513,-1.3330810296633429 v-5.135962880076624 c0,-1.1626249144860226 -0.4973796425608653,-2.2734394495386216 -1.3652035312293511,-3.047486584591253 c-0.5585158239750192,-0.4978977131965568 -1.2408584879545634,-0.8325926980191865 -1.973975390096148,-0.96781788781635 c-0.7859635554809623,-0.14506906241358572 -1.5838432661211126,-0.042484444818121594 -2.2998627762083106,0.26734155787646513 v-0.7004763299398852 c0,-1.3512146956236837 -0.684415079156881,-2.585337867410545 -1.8299426015885167,-3.3013573774977427 l-0.10983800439885774,-0.068389700852119 c-0.8968377011512031,-0.5522985784430087 -1.956877998041761,-0.7180917926299637 -2.9858321999068362,-0.4668114855365024 c-0.2372914714877938,0.0575095543297429 -0.4662934149008111,0.13626133106854663 -0.6854513530628354,0.23314664113311986 c-0.1766733607093312,-0.7061753722016332 -0.5372736015659584,-1.3569137378854321 -1.0564135371715757,-1.8915968536383616 c-1.1735051936429697,-1.2076999777517434 -2.8827295116756813,-1.5688182892440623 -4.379531340348642,-1.0393162777517604 v-5.411594098662437 c0,-1.14397317788999 -0.48287286895407816,-2.2444256370559037 -1.324273430952875,-3.0195089133799193 c-0.8077237158911433,-0.7434789780282696 -1.8558477249879424,-1.1289482010129397 -2.952155353799183,-1.0818007225698818 c-1.0963076288112403,0.04559313390141267 -2.109200579893312,0.5155133085212062 -2.851643284015627,1.3237552276826121 l-0.017615462690078316,0.019687877867415254 c-0.6984040473971197,0.7595402288112736 -1.082836996475836,1.7460098532236565 -1.082836996475836,2.7775544082671884 v14.01470770305833 c-0.9139350932055899,-1.5268519150616318 -2.3444196362037686,-2.6418112804689047 -4.060897473674445,-3.1568063857198485 c-1.4890303712338762,-0.4471236076690874 -3.111213384453007,0.15853969474899018 -3.9432880118365023,1.4729689878163006 c-0.6041090905110036,0.9527929109393003 -0.7082479200135416,2.1449498411783026 -0.2787399076691039,3.188410816650165 l2.1931333282581718,5.332324251287942 c0.8113506082446971,1.973975390096148 1.2232431578990564,4.056752775954342 1.2232431578990564,6.190822205341126 v1.3610587008746768 c0,2.0164599675488413 0.7854453522106997,3.9127198548121394 2.211266994218513,5.339059567455645 l2.435605904006594,2.435606036641165 c0.590120254905336,0.5901201222707646 0.9154894377472351,1.3750474038457727 0.9154894377472351,2.2097126496768675 v2.8827295116756813 h-0.7678298895206215 c-0.35386479205435384,0.0005180706356913977 -0.6932228105019205,0.1409242320589119 -0.942948905688307,0.3916864685166815 c-0.25024416582207826,0.25024403318750676 -0.39013212397503594,0.5896020516350735 -0.3896140533393445,0.9434669763239983 l0.009844005250993302,6.244186929316195 c0.0010361412713827947,0.735189317318922 0.5973736417087295,1.331008614486006 1.3330810296633429,1.331008614486006 h0.0005182032702627475 l23.13437049197767,-0.006735316167702219 c0.3538649246889251,-0.0005180706356913977 0.6932229431364917,-0.1409242320589119 0.9429490383228784,-0.3916864685166815 c0.25024403318750676,-0.25024416582207826 0.39013212397503594,-0.5896020516350735 0.3896140533393445,-0.9434669763239983 l-0.009844005250993302,-6.244186929316195 c-0.0010362739059541445,-0.735189317318922 -0.5973737743433012,-1.331008614486006 -1.3330810296633429,-1.331008614486006 l-0.38857791206796183,0.0005180706356913977 v-3.6039299933889355 c0.0005180706356913977,-0.44971409348211555 0.1398880907875291,-0.8792222384611248 0.40308468567474903,-1.2429310357664713 zm-21.808024778482032,11.09674713336792 l-0.0056991748963194176,-3.57802486998951 l20.468726635921247,-0.00621724553201082 l0.005699042261748072,3.578542940625201 zm0,0 " id="svg_7" class="" fill="#ffffff"/><path d="m2.8732712135724485,12.87384308161706 l2.0527272994695234,1.184903410801037 c0.20983200354672227,0.12123622155692523 0.43883394695973954,0.17874577588666818 0.6647272012894659,0.17874577588666818 c0.4611123106401831,0 0.9087539889449615,-0.23884581602943933 1.15588959831832,-0.6662815458311113 c0.36837169829571237,-0.6377856713495144 0.14973196340395103,-1.4527629066786225 -0.4880538405801345,-1.8211347376089058 l-2.0527271668349516,-1.184903410801037 c-0.6372677333483946,-0.36837183093028386 -1.4522449686775023,-0.14973196340395103 -1.820616799607786,0.487535637309872 c-0.367853627660021,0.6377858039840859 -0.14973196340395103,1.4527630393131936 0.48805370794556335,1.8211348702434775 zm0,0 " id="svg_8" class="" fill="#ffffff"/><path d="m2.7981461965526266,19.84803822399155 c0.08755950808384286,0 0.1761552900736398,-0.008807731345039156 0.26526914269912816,-0.02642332666968883 l2.323177413794708,-0.4688839007138394 c0.7217186849835173,-0.1455871330492772 1.1890482411557108,-0.8481358781664994 1.0434611081064342,-1.5698544305154452 c-0.14558726568384847,-0.7217186849835173 -0.8486540814367619,-1.1880119672497573 -1.5703726337857076,-1.0429429048361714 l-2.323177413794708,0.468365830078148 c-0.721718552348946,0.1455871330492772 -1.1890482411557108,0.8486539488021906 -1.0434611081064342,1.5698544305154452 c0.12745359972350737,0.6326046997234577 0.6838970085211898,1.069884302141552 1.3051034910865795,1.069884302141552 zm0,0 " id="svg_9" class="" fill="#ffffff"/><path d="m33.35590798638579,43.95592591131646 c-0.27563121858581274,-0.6823426639795441 -1.0527869100871645,-1.0118566771761173 -1.735129574066709,-0.7357073879546131 c-0.682860867249807,0.27563121858581274 -1.0123747478118086,1.0522688394514734 -0.7362254585903045,1.735129574066709 l0.01243449106402164,0.030568157024362698 c0.20931393291103084,0.5186218649699259 0.7087659906492328,0.8336289719251406 1.2356775163285068,0.8336289719251406 c0.1668294880929093,0 0.335731258728584,-0.031604298295745514 0.49945205773820217,-0.09740351333483616 c0.6823426639795441,-0.2761492892215043 1.0118566771761173,-1.0527869100871645 0.7362254585903045,-1.7356476447023998 zm0,0 " id="svg_10" class="" fill="#ffffff"/></g></g></svg>