<svg xmlns="http://www.w3.org/2000/svg" enable-background="new 0 0 510 510" height="31" width="38"><rect id="backgroundrect" width="100%" height="100%" x="0" y="0" fill="none" stroke="none" class="" style=""/><g class="currentLayer" style=""><title>Layer 1</title><g class="selected" fill-opacity="1" fill="#8f8e8e"><path d="m37.07567518194388,5.562265058965465 c-0.07175362032651905,-0.002469102680683138 -1.5455086355209349,-0.052225262761116074 -3.7088915115594867,-0.004414456307888033 v-4.435555912613869 c0,-0.653863282620907 -0.5583164910078048,-1.1724496668577193 -1.2156963744163514,-1.1184286930561067 c-4.3135972044467925,0.3601148849129678 -9.801664250671864,2.266187333106995 -13.071654055416586,5.742758728802204 c-3.2699898047447205,-3.4765713956952102 -8.75805685096979,-5.3826438438892374 -13.071654055416586,-5.742758728802204 c-0.656182742714882,-0.0534224034547806 -1.2156963744163514,0.4628445206880569 -1.2156963744163514,1.1184286930561067 v4.5554944458603845 c-1.2291642072200777,-0.04638920187950137 -2.3918122846484184,-0.07908610707521442 -3.6364644995927806,-0.11567371952533724 c-0.627750651240349,-0.01982764273881912 -1.1556148758530618,0.4858146577477456 -1.1556148758530618,1.1217956512570382 v20.438932705521584 c0,0.5906392897367476 0.4576818514466286,1.0801950121521948 1.0469743579030037,1.1197754763364791 c4.4644369318485255,0.3004823141098024 11.942750381290912,0.33430153870582585 17.592206957280634,2.7438464698791503 c0.5034724829792976,0.21503639709949499 0.9554679161310196,-0.031948692262172715 0.8806466227769852,0 c5.6493069334030155,-2.4094701098799707 13.12627359956503,-2.44321451318264 17.592206957280634,-2.7438464698791503 c0.5892176851630211,-0.039580464184284216 1.0469743579030037,-0.5291361865997315 1.0469743579030037,-1.1197754763364791 v-20.438932705521584 c-0.000149642586708069,-0.6046308715939522 -0.4790807413458826,-1.1005464039444923 -1.0833375064730644,-1.12164600867033 zm-5.9535303121805185,-3.177660328745842 v19.235656665802004 c-3.236469865322113,0.7239708344936373 -7.338098345696927,2.26888089966774 -10.920392228901386,5.544631944000721 c0,-0.9880151787400244 0,-18.75732413738966 0,-19.291697814524174 c2.4556348478794097,-3.0639319628477097 7.106227157592773,-4.910671125411987 10.920392228901386,-5.488590795278549 zm-24.085423258423805,0 c3.8141650713086124,0.577919669866562 8.464757381021975,2.4246588324308394 10.920392228901386,5.488590795278549 v19.291697814524174 c-3.58229388320446,-3.275751044332981 -7.683922363579273,-4.820661109507084 -10.920392228901386,-5.544631944000721 zm-4.792079375445843,23.68213648724556 v-18.226990810096265 c0.8036555119156837,0.023793171286582954 1.6632025299668312,0.05065401560068134 2.54744057482481,0.08439841890335086 v14.610877702295781 c0,0.5399852741360666 0.38458144783973697,1.0034283651709557 0.9152888815999032,1.1030155066251754 c2.562704118669033,0.4810260949730874 5.895244524657726,1.5250824224352837 9.001226054370402,3.7731630025506018 c-4.4312910988926895,-0.9938512396216392 -9.06961271649599,-1.1535947009325027 -12.463955510795117,-1.344463820278645 zm33.66958200931549,0 c-3.3888060185909272,0.19056983417272577 -8.030943522155285,0.35016365289688106 -12.464030332088472,1.344463820278645 c3.105981529712677,-2.2480805801153183 6.438596756994724,-3.2921369075775146 9.001226054370402,-3.7731630025506018 c0.5307074337601663,-0.09958714145421987 0.9152888815999032,-0.5630302324891093 0.9152888815999032,-1.1030155066251754 v-14.731788912355901 c1.0329827760457992,-0.023119779646396648 1.9128063645958902,-0.023419064819812787 2.54744057482481,-0.01765782523155213 v18.281161426484584 z" id="svg_1" class="" fill="#8f8e8e"/><path d="m15.047089277822476,10.517410077641507 c-0.8692737861871721,-0.6056035484075546 -2.367869470775127,-1.348953097879887 -3.967174616217613,-1.619207609474659 c-0.6109158602356911,-0.10370231258869174 -1.1903319559693337,0.308488192498684 -1.2936601620912551,0.9196285166144373 c-0.10325338482856751,0.6111403241157531 0.308488192498684,1.1903319559693337 0.9197033379077911,1.2935853407979012 c1.2347758042216301,0.20867658716440204 2.419047235429287,0.8025331925153734 3.058021080672741,1.2477198879718783 c0.5084106883406637,0.35420400273799896 1.2079897812008857,0.2294020854234696 1.5624182478189468,-0.2793078880906106 c0.354278824031353,-0.5085603309273719 0.22925244283676155,-1.2081394237875938 -0.2793078880906106,-1.5624182478189468 z" id="svg_2" class="" fill="#8f8e8e"/><path d="m14.934707695204715,16.83756472725679 c-0.7997648046612741,-0.4883585817217828 -2.3640535848140716,-1.345361675798893 -3.8547930335998544,-1.5972849705219268 c-0.6109158602356911,-0.10355267000198368 -1.1903319559693337,0.30841337120532997 -1.2936601620912551,0.9196285166144373 c-0.10325338482856751,0.6112151454091074 0.308488192498684,1.1903319559693337 0.9197033379077911,1.2935853407979012 c1.1613012941479683,0.19625625246763237 2.5259668636322017,0.9742480607628823 3.0587692936062814,1.299720686852932 c0.5296599356532098,0.3233028085827828 1.2201108307242392,0.15555346888303764 1.5428150689601898,-0.37283450478315355 c0.3230783447027207,-0.5289865440130234 0.1561520392298699,-1.219661902964115 -0.37283450478315355,-1.5428150689601898 z" id="svg_3" class="" fill="#8f8e8e"/><path d="m24.394887563008766,12.35913621355106 c0.638973845243454,-0.4451866954565049 1.823245276451111,-1.039043300807476 3.058021080672741,-1.2477198879718783 c0.6111403241157531,-0.10325338482856751 1.0228819014430046,-0.6824450166821483 0.9197033379077911,-1.2935853407979012 c-0.10325338482856751,-0.6112151454091074 -0.6826694805622102,-1.0235552930831908 -1.2936601620912551,-0.9196285166144373 c-1.5993051454424858,0.2701796903014183 -3.0979008300304414,1.0136040610671044 -3.967174616217613,1.619207609474659 c-0.5085603309273719,0.354278824031353 -0.6335867121219635,1.053857916891575 -0.2793078880906106,1.5624182478189468 c0.35450328791141517,0.5088596161007883 1.054306844651699,0.6333622482419012 1.5624182478189468,0.2793078880906106 z" id="svg_4" class="" fill="#8f8e8e"/><path d="m27.078951819498045,15.240354578028217 c-1.490739448785782,0.2518484734296799 -3.0550282289385797,1.1088515675067903 -3.8547930335998544,1.5972849705219268 c-0.5289865440130234,0.3230783447027207 -0.6959128494858744,1.0138285249471666 -0.37283450478315355,1.5428150689601898 c0.3230783447027207,0.5289117227196694 1.0137537036538125,0.6958380281925204 1.5428150689601898,0.37283450478315355 c0.5328024299740791,-0.3254726260900499 1.897467999458313,-1.1034644343852997 3.0587692936062814,-1.299720686852932 c0.6111403241157531,-0.10325338482856751 1.0228819014430046,-0.682370195388794 0.9197033379077911,-1.2935853407979012 c-0.10332820612192153,-0.6112151454091074 -0.6826694805622102,-1.0235552930831908 -1.2936601620912551,-0.9196285166144373 z" id="svg_5" class="" fill="#8f8e8e"/></g></g></svg>