<svg xmlns="http://www.w3.org/2000/svg" width="116" height="116"><rect id="backgroundrect" width="100%" height="100%" x="0" y="0" fill="none" stroke="none"/><g class="currentLayer" style=""><title>Layer 1</title><path d="M58.062975382358985,10.465856141195275 c15.502818380355835,0 17.341479736328125,0.05806299018859868 23.46712520122528,0.338700776100159 c15.735070341110228,0.7161102123260503 23.084877182483673,8.182043034076694 23.800987394809724,23.800987394809724 c0.2806377859115603,6.12080688238144 0.33386219358444286,7.959468238353729 0.33386219358444286,23.462286618709566 c0,15.507656962871552 -0.05806299018859868,17.341479736328125 -0.33386219358444286,23.462286618709566 c-0.7209487948417665,15.604428613185883 -8.051401306152345,23.084877182483673 -23.800987394809724,23.800987394809724 c-6.125645464897156,0.2806377859115603 -7.954629655838013,0.338700776100159 -23.46712520122528,0.338700776100159 c-15.502818380355835,0 -17.341479736328125,-0.05806299018859868 -23.462286618709566,-0.338700776100159 c-15.77377900123596,-0.7209487948417665 -23.084877182483673,-8.220751694202425 -23.800987394809724,-23.80582597732544 c-0.2806377859115603,-6.12080688238144 -0.338700776100159,-7.954629655838013 -0.338700776100159,-23.462286618709566 c0,-15.502818380355835 0.06290157270431522,-17.33664115381241 0.338700776100159,-23.462286618709566 c0.7209487948417665,-15.614105778217315 8.051401306152345,-23.084877182483673 23.800987394809724,-23.800987394809724 c6.125645464897156,-0.27579920339584385 7.959468238353729,-0.33386219358444286 23.462286618709566,-0.33386219358444286 zm0,-10.465853981494904 c-15.768940418720245,0 -17.743082085132603,0.06774015522003185 -23.936467705249786,0.34837794113159226 c-21.086542603492735,0.9677165031433106 -32.80558945655823,12.667409026145936 -33.77330595970154,33.77330595970154 c-0.2854763684272769,6.198224202632905 -0.35321652364730866,8.172365869045258 -0.35321652364730866,23.941306287765507 c0,15.768940418720245 0.06774015522003185,17.747920667648316 0.34837794113159226,23.941306287765507 c0.9677165031433106,21.086542603492735 12.667409026145936,32.80558945655823 33.77330595970154,33.77330595970154 c6.198224202632905,0.2806377859115603 8.172365869045258,0.34837794113159226 23.941306287765507,0.34837794113159226 c15.768940418720245,0 17.747920667648316,-0.06774015522003185 23.941306287765507,-0.34837794113159226 c21.06718827342987,-0.9677165031433106 32.81526662158966,-12.667409026145936 33.76846737718582,-33.77330595970154 c0.2854763684272769,-6.193385620117188 0.35321652364730866,-8.172365869045258 0.35321652364730866,-23.941306287765507 c0,-15.768940418720245 -0.06774015522003185,-17.743082085132603 -0.34837794113159226,-23.936467705249786 c-0.9483621730804445,-21.06718827342987 -12.66257044363022,-32.80558945655823 -33.76846737718582,-33.77330595970154 c-6.198224202632905,-0.2854763684272769 -8.177204451560977,-0.35321652364730866 -23.94614487028122,-0.35321652364730866 zm0,28.247644726753236 c-16.465696300983428,0 -29.815345461845396,13.34964916086197 -29.815345461845396,29.815345461845396 s13.34964916086197,29.820184044361117 29.815345461845396,29.820184044361117 s29.815345461845396,-13.34964916086197 29.815345461845396,-29.820184044361117 c0,-16.465696300983428 -13.34964916086197,-29.815345461845396 -29.815345461845396,-29.815345461845396 zm0,49.169675524711614 c-10.688428777217865,0 -19.35433006286621,-8.661062703132629 -19.35433006286621,-19.35433006286621 c0,-10.688428777217865 8.665901285648346,-19.35433006286621 19.35433006286621,-19.35433006286621 s19.35433006286621,8.665901285648346 19.35433006286621,19.35433006286621 c0,10.693267359733582 -8.665901285648346,19.35433006286621 -19.35433006286621,19.35433006286621 zm30.995959595680237,-57.31300989866257 c-3.851511682510376,0 -6.972397405147553,3.1208857226371776 -6.972397405147553,6.967558822631836 s3.1208857226371776,6.967558822631836 6.972397405147553,6.967558822631836 c3.8466730999946597,0 6.96272024011612,-3.1208857226371776 6.96272024011612,-6.967558822631836 s-3.116047140121461,-6.967558822631836 -6.96272024011612,-6.967558822631836 z" id="svg_1" class="" fill="#c2c2c2" fill-opacity="1"/></g></svg>