<svg xmlns="http://www.w3.org/2000/svg" height="78" width="92"><rect id="backgroundrect" width="100%" height="100%" x="0" y="0" fill="none" stroke="none" class="" style=""/><g class="currentLayer" style=""><title>Layer 1</title><path d="m90.97831356667552,2.1403641351498663 c-1.1286965887324214,-1.3803796780819595 -2.8192741480394004,-2.1403641351498663 -4.760829666562499,-2.1403641351498663 c-1.0553771321923733,0 -2.173498934667438,0.22207339906308057 -3.322640326738477,0.6612850081699492 l-78.21917031253105,29.85864381651917 c-4.151009231805801,1.5841231227706971 -4.710070042804003,3.9613656826055346 -4.674115354428068,5.237406134072811 s0.72896459675394,3.6180331823416054 4.9631631217023875,4.965278241384655 c0.025379992357909685,0.007754987638324501 0.05075962375849487,0.015509794797986753 0.07613961611640456,0.022559832781553275 l16.22474964834401,4.643095494114101 l8.774364872236044,25.090764111973108 c1.1963762675557434,3.4206346455030143 3.881701318215341,5.545488805376232 7.009058137558162,5.545488805376232 c1.9718703389429746,0 3.911311008501798,-0.8262538756243887 5.608938425313681,-2.3885222957469523 l10.035600659038753,-9.240366373010337 l14.556027152642491,11.72053807967168 c0.0014098993095159541,0.0014098993095159541 0.0035249287524521367,0.002114848964273931 0.004934828061968088,0.0035249287524521367 l0.1381789757870138,0.11138908411958813 c0.01268999617895484,0.009870017081260687 0.02608494201266767,0.020444983817279345 0.03877475771296026,0.03031482041987778 c1.6179630524216893,1.2548906984739006 3.3839749172329903,1.9175857864320278 5.109097175367057,1.9182909165654483 h0.0007049496547579769 c3.3705799713992777,0 6.054495122749358,-2.494976551804572 6.8363342824653985,-6.355527936547875 l12.816100049365193,-63.28315093135461 c0.5146462755685152,-2.5400962173676787 0.08318929314264654,-4.8129993701091704 -1.2154109911061823,-6.400647602110982 zm-64.28494846069079,42.36595588396886 l31.302472934059917,-15.991396332890153 l-19.490990573607267,20.710631443120658 c-0.31936258769419806,0.3391024413780572 -0.5456658651644887,0.7543444988725185 -0.6570551297627388,1.2062461041583419 l-3.758327187571555,15.223657068662584 zm12.296518765256048,25.14645874427223 c-0.12971903849393138,0.1191440717579127 -0.26014302664262057,0.22559832781553274 -0.39056701479130984,0.32359246610140807 l3.486904064059496,-14.122455321252346 l6.342838120847582,5.107687276057542 zm47.89734497433528,-62.18688401200634 l-12.816100049365193,63.283855881009366 c-0.12337395016512277,0.6055905563494863 -0.5174660741875469,2.014874975063145 -1.5305435199145079,2.014874975063145 c-0.5005463800800442,0 -1.1294017188658416,-0.27283302282157534 -1.7730619027948678,-0.7684442138823273 l-16.494057742413133,-13.28069165082997 c-0.0021150294429361826,-0.0021150294429361826 -0.004935008540630343,-0.004229878407210113 -0.007754987638324501,-0.005639958195388318 l-9.814232209630429,-7.902991331048549 l28.186396031107872,-29.9502930469549 c0.9023933112621306,-0.958792893216014 0.9841727050952611,-2.4272970534599123 0.19387360808613896,-3.48055915620935 c-0.7910042271425427,-1.0532622832280993 -2.224258558425933,-1.3846097369678319 -3.396664913411945,-0.785364268947154 l-46.35904628630379,23.683594542223723 l-16.445413148097575,-4.705135214742034 l78.19520039996132,-29.84947874909267 c0.6605800585151913,-0.2523880390042961 1.1216467312275171,-0.3052626922057272 1.3916597749513984,-0.3052626922057272 c0.16567363663053514,0 0.4603615425789059,0.019739853683859113 0.56963577773422,0.15439390071842077 c0.14381893398240217,0.17554365371179584 0.3271175753325225,0.7740841720777155 0.10010916772881152,1.897140983093411 zm0,0 " id="svg_1" class="" fill-opacity="1" fill="#c2c2c2"/></g></svg>